<?xml version="1.0" encoding="utf-8"?>
<!-- Generator: Adobe Illustrator 24.2.3, SVG Export Plug-In . SVG Version: 6.00 Build 0)  -->
<svg version="1.1" id="Layer_1" xmlns="http://www.w3.org/2000/svg" xmlns:xlink="http://www.w3.org/1999/xlink" x="0px" y="0px"
	 viewBox="0 0 647.6 632.2" style="enable-background:new 0 0 647.6 632.2;" xml:space="preserve">
<style type="text/css">
	.st0{fill:#F2F2F2;}
	.st1{fill:#3F3D56;}
	.st2{fill:#F38120;}
	.st3{fill:#FFFFFF;}
	.st4{fill:#E6E6E6;}
</style>
<path class="st0" d="M411.1,142.2H236.6c-8.3,0-15,6.7-15,15V545l-2,0.6l-42.8,13.1c-4.2,1.3-8.7-1.1-10-5.3l-127.3-416
	c-1.3-4.2,1.1-8.7,5.3-10l66-20.2L302,48.8l66-20.2c4.2-1.3,8.7,1.1,10,5.3c0,0,0,0,0,0l32.5,106.3L411.1,142.2z"/>
<path class="st1" d="M449.2,140.2L410,12c-2.7-9-12.2-14-21.2-11.3c0,0,0,0,0,0L296,29.1L104.8,87.7L12,116.1
	c-9,2.8-14,12.3-11.3,21.2l134.1,437.9c2.2,7.1,8.8,12,16.3,12c1.7,0,3.4-0.3,5-0.8l63.6-19.5l2-0.6v-2.1l-2,0.6l-64.2,19.7
	c-7.9,2.4-16.3-2-18.7-10L2.7,136.7c-2.4-7.9,2-16.3,9.9-18.7c0,0,0,0,0,0l92.8-28.4l191.2-58.5l92.8-28.4c1.4-0.4,2.9-0.7,4.4-0.7
	c6.6,0,12.4,4.3,14.3,10.6l39,127.6l0.6,2h2.1L449.2,140.2z"/>
<path class="st2" d="M122.7,127.8c-4,0-7.4-2.6-8.6-6.4l-12.9-42.1c-1.5-4.8,1.2-9.8,6-11.2c0,0,0,0,0,0l175.9-53.9
	c4.8-1.5,9.8,1.2,11.2,6l12.9,42.1c1.4,4.8-1.2,9.8-6,11.2l-175.9,53.9C124.5,127.7,123.6,127.8,122.7,127.8z"/>
<circle class="st2" cx="190.2" cy="25" r="20"/>
<circle class="st3" cx="190.2" cy="25" r="12.7"/>
<path class="st4" d="M602.6,582.2h-338c-4.7,0-8.5-3.8-8.5-8.5v-405c0-4.7,3.8-8.5,8.5-8.5h338c4.7,0,8.5,3.8,8.5,8.5v405
	C611.1,578.4,607.3,582.2,602.6,582.2z"/>
<path class="st1" d="M447.1,140.2H236.6c-9.4,0-17,7.6-17,17V565l2-0.6V157.2c0-8.3,6.7-15,15-15h211.1L447.1,140.2z M630.6,140.2
	h-394c-9.4,0-17,7.6-17,17v458c0,9.4,7.6,17,17,17h394c9.4,0,17-7.6,17-17v-458C647.6,147.8,640,140.2,630.6,140.2z M645.6,615.2
	c0,8.3-6.7,15-15,15h-394c-8.3,0-15-6.7-15-15v-458c0-8.3,6.7-15,15-15h394c8.3,0,15,6.7,15,15V615.2z"/>
<path class="st2" d="M525.6,184.2h-184c-5,0-9-4-9-9v-44c0-5,4-9,9-9h184c5,0,9,4,9,9v44C534.6,180.1,530.6,184.2,525.6,184.2z"/>
<circle class="st2" cx="433.6" cy="105.2" r="20"/>
<circle class="st3" cx="433.6" cy="105.2" r="12.2"/>
</svg>
