<?xml version="1.0" encoding="utf-8"?>
<!-- Generator: Adobe Illustrator 24.2.3, SVG Export Plug-In . SVG Version: 6.00 Build 0)  -->
<svg version="1.1" id="Layer_1" xmlns="http://www.w3.org/2000/svg" xmlns:xlink="http://www.w3.org/1999/xlink" x="0px" y="0px"
	 viewBox="0 0 676.7 577.3" style="enable-background:new 0 0 676.7 577.3;" xml:space="preserve">
<style type="text/css">
	.st0{fill:#E4E4E4;}
	.st1{fill:#F2F2F2;}
	.st2{fill:#FFFFFF;}
	.st3{fill:#F38120;}
	.st4{fill:#E5E5E5;}
	.st5{fill:#CACACA;}
	.st6{fill:#FFB6B6;}
	.st7{fill:#3F3D56;}
	.st8{fill:#2F2E41;}
</style>
<path id="a24dc8e0-63f3-4c57-9da7-8d00cfa1aebe-2282" class="st0" d="M315,528.4c8,2.8,16.8,1.2,23.4-4.1
	c8.2-6.9,10.8-18.2,12.8-28.7l6.2-31l-12.9,8.9c-9.3,6.4-18.8,13-25.3,22.3s-9.3,21.9-4.1,32"/>
<path id="bc8b2ee0-9ec2-4139-a7e3-e0b1b1382397-2283" class="st1" d="M317,568.1c-1.6-11.9-3.3-23.9-2.2-35.9
	c1-10.6,4.3-21,10.9-29.6c3.5-4.5,7.8-8.4,12.6-11.4c1.3-0.8,2.4,1.2,1.2,2c-8.4,5.3-14.9,13.1-18.5,22.3c-4,10.2-4.7,21.4-4,32.3
	c0.4,6.6,1.3,13.1,2.2,19.7c0.1,0.6-0.2,1.2-0.8,1.4C317.8,569.1,317.2,568.7,317,568.1L317,568.1z"/>
<path id="a6bcb68f-fec1-4497-88cc-56de52c10faf-2284" class="st0" d="M328.8,549.1c3.4,5.2,9.3,8.2,15.5,8
	c7.9-0.4,14.4-5.9,20.3-11.1l17.5-15.4l-11.5-0.6c-8.3-0.4-16.8-0.8-24.7,1.8s-15.2,8.7-16.7,16.9"/>
<path id="a1650e23-bf32-4c95-848c-aacb59e17a01-2285" class="st1" d="M312.4,574.9c7.8-13.9,16.9-29.3,33.2-34.2
	c4.5-1.4,9.3-1.9,14-1.4c1.5,0.1,1.1,2.4-0.4,2.3c-7.9-0.7-15.7,1.4-22.3,5.9c-6.3,4.3-11.2,10.2-15.3,16.5
	c-2.5,3.9-4.8,7.9-7.1,11.9C313.8,577.2,311.7,576.2,312.4,574.9z"/>
<path class="st2" d="M572.7,406.8H0V0h572.7V406.8z"/>
<path class="st3" d="M46.6,167.1c-3.1,0-5.6,2.5-5.6,5.6c0,3.1,2.5,5.6,5.6,5.6H240c3.1,0,5.6-2.5,5.6-5.6c0-3.1-2.5-5.6-5.6-5.6
	H46.6z"/>
<path class="st3" d="M46.6,200.6c-3.1,0-5.6,2.5-5.6,5.6c0,3.1,2.5,5.6,5.6,5.6c0,0,0,0,0,0h193.6c3.1,0,5.6-2.5,5.6-5.6
	c0-3.1-2.5-5.6-5.6-5.6c0,0,0,0,0,0H46.6z"/>
<path class="st3" d="M46.6,233.6c-3.1,0-5.6,2.5-5.6,5.6c0,3.1,2.5,5.6,5.6,5.6c0,0,0,0,0,0h43.6c3.1,0,5.6-2.5,5.6-5.6
	c0-3.1-2.5-5.6-5.6-5.6c0,0,0,0,0,0H46.6z"/>
<path class="st4" d="M572.7,406.8H0V0h572.7V406.8z M9.4,397.4h553.8V9.4H9.4V397.4z"/>
<path class="st0" d="M392.5,317.4c-5.5,0-10,4.5-10.1,10c0,5.5,4.5,10,10,10.1h95.8c5.5,0,10-4.5,10-10c0-5.5-4.5-10-10-10
	c0,0,0,0,0,0H392.5z"/>
<path class="st0" d="M392.5,195.9c-5.5,0-10,4.5-10.1,10c0,5.5,4.5,10,10,10.1h95.8c5.5,0,10-4.5,10-10c0-5.5-4.5-10-10-10
	c0,0,0,0,0,0H392.5z"/>
<path class="st0" d="M46.6,322.1c-3.1,0-5.6,2.5-5.6,5.6c0,3.1,2.5,5.6,5.6,5.6c0,0,0,0,0,0h193.6c3.1,0,5.6-2.5,5.6-5.6
	s-2.5-5.6-5.6-5.6c0,0,0,0,0,0H46.6z"/>
<path class="st0" d="M46.6,355.1c-3.1,0-5.6,2.5-5.6,5.6s2.5,5.6,5.6,5.6c0,0,0,0,0,0h43.6c3.1,0,5.6-2.5,5.6-5.6s-2.5-5.6-5.6-5.6
	c0,0,0,0,0,0H46.6z"/>
<path class="st0" d="M46.6,288.6c-3.1,0-5.6,2.5-5.6,5.6c0,3.1,2.5,5.6,5.6,5.6H240c3.1,0,5.6-2.5,5.6-5.6c0-3.1-2.5-5.6-5.6-5.6
	H46.6z"/>
<path class="st0" d="M46.6,45.6c-3.1,0-5.6,2.5-5.6,5.6c0,3.1,2.5,5.6,5.6,5.6H240c3.1,0,5.6-2.5,5.6-5.6c0-3.1-2.5-5.6-5.6-5.6
	H46.6z"/>
<path class="st0" d="M46.6,79.1c-3.1,0-5.6,2.5-5.6,5.6c0,3.1,2.5,5.6,5.6,5.6l0,0h193.6c3.1,0,5.6-2.5,5.6-5.6
	c0-3.1-2.5-5.6-5.6-5.6l0,0H46.6z"/>
<path class="st0" d="M46.6,112.1c-3.1,0-5.6,2.5-5.6,5.6c0,3.1,2.5,5.6,5.6,5.6c0,0,0,0,0,0h43.6c3.1,0,5.6-2.5,5.6-5.6
	c0-3.1-2.5-5.6-5.6-5.6c0,0,0,0,0,0H46.6z"/>
<path class="st0" d="M392.5,74.4c-5.5,0-10,4.5-10.1,10c0,5.5,4.5,10,10,10.1h95.8c5.5,0,10-4.5,10-10c0-5.5-4.5-10-10-10
	c0,0,0,0,0,0H392.5z"/>
<circle class="st5" cx="412.7" cy="84.3" r="18"/>
<path class="st6" d="M444.1,210.2c-0.8,5.5,3.1,10.5,8.5,11.2c0.6,0.1,1.2,0.1,1.8,0.1l9.6,20.7l14-2.7l-13.9-29
	c-0.6-5.5-5.5-9.5-11-8.9C448.4,202.1,444.7,205.7,444.1,210.2L444.1,210.2z"/>
<polygon class="st7" points="541,288.6 502,269.3 474.4,222.6 455.2,231.9 480.2,285.8 543.2,322.3 "/>
<polygon class="st6" points="452.9,564.7 440.6,564.7 434.8,529.3 452.9,529.3 "/>
<path class="st8" d="M456,576.6l-39.5,0v-0.5c0-8.5,6.9-15.4,15.4-15.4h0l24.1,0L456,576.6z"/>
<polygon class="st6" points="575.3,542.2 566.7,551 537.3,530.5 550,517.5 "/>
<path class="st8" d="M586,548.3l-27.6,28.3l-0.4-0.3c-6.1-5.9-6.2-15.7-0.3-21.8l0,0l16.8-17.3L586,548.3z"/>
<path class="st8" d="M468.1,354.3h-8.5l0,0c-22,24.1-38.9,52.5-49.4,83.4L400,467.4l36.1,75.6l22.5,0.4l-25.7-80.3l25.9-34.4
	l1.3,69.2l83.5,43.8l16.7-24.7l-67.9-37.2L504,421c0,0,23.3-19.4,9.7-49.8L468.1,354.3z"/>
<path class="st7" d="M579.7,277.3l-35.2-15.4l-38.8,17.2c0,0-11,6.2-4,22.2l-42.1,53c0,0,0.1,0,53,16.9l47.7-42
	C575,316.2,582.2,296.8,579.7,277.3L579.7,277.3z"/>
<circle class="st6" cx="573.7" cy="236.9" r="24.6"/>
<path class="st8" d="M605.6,204.3c-5.6-4.6-14.4-5.6-20.2-1.2c-10.1-5.3-23.9-2.5-31.1,6.3c-2.6,3.2-4.5,7.5-3.2,11.4
	c1.3,3.9,6.9,6.2,9.8,3.3l-0.1,1.2c7.6,7.6,7.6,20,0,27.6c-3.2,3.2-7.5,5.2-12.1,5.6c8,3.3,16.1,6.5,24.1,9.8
	c3.4,1.4,6.9,2.8,10.5,2.7c3.7,0,7.5-1.8,9-5.2c1,3.1,2,6.2,3.1,9.4c6-9.5,10.9-19.7,14.7-30.3c2.4-6.8,4.4-14,4.1-21.3
	C614,216.3,611.2,208.9,605.6,204.3z"/>
<circle class="st5" cx="412.7" cy="327.3" r="18"/>
<circle class="st3" cx="468.7" cy="205.9" r="18"/>
<path class="st6" d="M469.1,200.2c-0.8,5.5,3.1,10.5,8.5,11.2c0.6,0.1,1.2,0.1,1.8,0.1l9.6,20.7l14-2.7l-13.9-29
	c-0.6-5.5-5.5-9.5-11-8.9C473.4,192.1,469.7,195.7,469.1,200.2L469.1,200.2z"/>
<polygon class="st7" points="566,278.6 527,259.3 499.4,212.6 480.2,221.9 505.2,275.8 568.2,312.3 "/>
<path class="st5" d="M675.7,577.3h-381c-0.6,0-1-0.4-1-1s0.4-1,1-1h381c0.6,0,1,0.4,1,1S676.2,577.3,675.7,577.3z"/>
</svg>
