<?xml version="1.0" encoding="utf-8"?>
<!-- Generator: Adobe Illustrator 24.2.3, SVG Export Plug-In . SVG Version: 6.00 Build 0)  -->
<svg version="1.1" id="Layer_1" xmlns="http://www.w3.org/2000/svg" xmlns:xlink="http://www.w3.org/1999/xlink" x="0px" y="0px"
	 viewBox="0 0 655.3 556.2" style="enable-background:new 0 0 655.3 556.2;" xml:space="preserve">
<style type="text/css">
	.st0{fill:#2F2E41;}
	.st1{fill:#A0616A;}
	.st2{fill:#CCCCCC;}
	.st3{fill:#FFFFFF;}
	.st4{fill:#F38120;}
	.st5{opacity:0.5;fill:#F38120;}
	.st6{fill:#3F3D56;}
</style>
<path class="st0" d="M558.3,190.7c7,13.8,12.5,28,28,28s28-12.5,28-28s-12.5-28-28-28C570.6,162.5,545.3,165,558.3,190.7z"/>
<polygon class="st1" points="580.3,527.4 568.4,530.1 552.4,485.2 570,481.2 "/>
<path class="st0" d="M586,538.3l-38.6,8.6l-0.1-0.5c-1.8-8.3,3.4-16.5,11.7-18.4c0,0,0,0,0,0l0,0l23.6-5.3L586,538.3z"/>
<polygon class="st1" points="615.9,543.4 603.6,543.4 597.8,496.2 615.9,496.2 "/>
<path class="st0" d="M619,555.3l-39.5,0v-0.5c0-8.5,6.9-15.4,15.4-15.4c0,0,0,0,0,0h0l24.1,0L619,555.3z"/>
<path class="st0" d="M616,518.7h-15.6c-2.2,0-4.1-1.7-4.5-3.9l-14.2-109.7c-0.1-0.8-0.9-1.4-1.7-1.3c-0.6,0.1-1.1,0.5-1.2,1.1
	l-8.4,31.3l7.6,71.4c0.3,2.3-1.2,4.4-3.5,4.9l-12.4,2.9c-2.3,0.5-4.6-0.8-5.3-3l-20-69.4c-1.6-5.1-2.2-10.4-1.6-15.7l6.3-62.5l0.5,0
	l83.5,4l-4.9,145.6C620.4,516.7,618.4,518.7,616,518.7z"/>
<circle class="st1" cx="584.9" cy="194.6" r="24.6"/>
<path class="st2" d="M623.5,375.4c-0.1,0-0.2,0-0.2,0l-83.2-4.5c-2.5-0.1-4.4-2.3-4.3-4.7c0-0.4,0.1-0.8,0.2-1.1l6.6-20.5
	c7.1-21.9,8.3-45.3,3.5-67.9c-2.5-11.9,0.2-24.4,7.5-34.1c7.2-9.6,18.2-15.7,30.2-16.6h0c0.4,0,0.8-0.1,1.2-0.1
	c23.3-1.4,43.2,16.4,44.6,39.6c0.2,2.9,0,5.8-0.4,8.7l-5.8,39l4.6,57.4c0.2,2.5-1.6,4.6-4.1,4.8
	C623.7,375.4,623.6,375.4,623.5,375.4z"/>
<path class="st1" d="M521,380.6c4.6-3.1,5.8-9.4,2.7-14c-0.3-0.5-0.7-1-1.1-1.4l16-31.9l-18.4,2.2l-12.4,30
	c-3.7,4.1-3.4,10.5,0.7,14.3C512,382.9,517.2,383.2,521,380.6z"/>
<path class="st1" d="M631.1,385.8c-4-3.8-4.2-10.2-0.3-14.2c0.4-0.4,0.9-0.8,1.3-1.2l-10.5-34.2l17.8,5.2l7.2,31.6
	c3,4.7,1.6,11-3.1,14C639.6,389.6,634.4,389.1,631.1,385.8L631.1,385.8z"/>
<path class="st2" d="M629.3,367.9c-2.3,0-4.2-1.7-4.5-3.9l-8.3-62.8l-13.3-49.1c-2-7.6,2.4-15.4,10-17.4c1.1-0.3,2.2-0.5,3.4-0.5
	l0,0c7-0.1,13.1,4.9,14.3,11.8l19.8,115.9c0.4,2.5-1.2,4.8-3.7,5.2c-0.2,0-0.4,0.1-0.6,0.1l-17,0.7
	C629.5,367.9,629.4,367.9,629.3,367.9z"/>
<path class="st2" d="M530,360.9c-0.3,0-0.6,0-1-0.1l-16.6-3.5c-2.4-0.5-4-2.9-3.5-5.3c0-0.2,0.1-0.4,0.2-0.5l38.9-111
	c2.4-6.6,9.2-10.5,16.1-9.2l0,0c7.7,1.5,12.7,9,11.2,16.6c-0.2,1.1-0.6,2.2-1,3.2l-21.3,46.2l-18.7,60.5
	C533.7,359.6,531.9,360.9,530,360.9z"/>
<path class="st0" d="M558.9,180.8c5.6,3.9,12.3,5.9,19.1,5.9c-2.4,1.7-5.2,2.8-8.1,3.3c9.1,1.9,18.4,2,27.5,0.2c2-0.3,4-1,5.8-2
	c1.8-1,3.1-2.7,3.6-4.8c0.6-3.4-2.1-6.6-4.9-8.7c-8.7-6.4-19.8-8.7-30.2-6c-3.4,0.9-6.8,2.3-9,5.1s-2.8,6.9-0.8,9.7L558.9,180.8z"/>
<path class="st3" d="M430.7,0H8.7C3.9,0,0,3.9,0,8.7V420c0,4.8,3.9,8.7,8.7,8.7h37v-2.5h-37c-3.4,0-6.2-2.8-6.2-6.2V8.7
	c0-3.4,2.8-6.2,6.2-6.2h422c3.4,0,6.2,2.8,6.2,6.2V420c0,1.2-0.4,2.4-1,3.4c-0.6,0.9-1.4,1.6-2.4,2.1c-0.9,0.5-1.9,0.7-2.9,0.7h-37
	v2.5h37c2.6,0,5-1.1,6.6-3.1c0.1-0.1,0.1-0.2,0.2-0.2c0.5-0.6,0.9-1.3,1.2-2.1c0.4-1,0.7-2.2,0.7-3.3V8.7C439.4,3.9,435.5,0,430.7,0
	z"/>
<rect x="1.2" y="35" class="st3" width="437" height="2.5"/>
<circle class="st3" cx="22.4" cy="18.7" r="7.5"/>
<circle class="st3" cx="43.9" cy="18.7" r="7.5"/>
<circle class="st3" cx="65.4" cy="18.7" r="7.5"/>
<path class="st3" d="M325.2,92.7h-211c-7.2,0-13-5.8-13-13c0-7.2,5.8-13,13-13h211c7.2,0,13,5.8,13,13
	C338.2,86.8,332.4,92.7,325.2,92.7z M114.2,68.7c-6.1,0-11,4.9-11,11s4.9,11,11,11h211c6.1,0,11-4.9,11-11s-4.9-11-11-11H114.2z"/>
<path class="st3" d="M378.7,274.2h-318c-9.4,0-17-7.6-17-17v-102c0-9.4,7.6-17,17-17h318c9.4,0,17,7.6,17,17v102
	C395.7,266.6,388.1,274.2,378.7,274.2z M60.7,140.2c-8.3,0-15,6.7-15,15v102c0,8.3,6.7,15,15,15h318c8.3,0,15-6.7,15-15v-102
	c0-8.3-6.7-15-15-15H60.7z"/>
<path class="st4" d="M261.4,200.8h-111c-4.4,0-8-3.6-8-8s3.6-8,8-8h111c4.4,0,8,3.6,8,8S265.8,200.8,261.4,200.8z"/>
<path class="st4" d="M364.4,227.8h-214c-4.4,0-8-3.6-8-8s3.6-8,8-8h214c4.4,0,8,3.6,8,8S368.8,227.8,364.4,227.8z"/>
<circle class="st4" cx="97" cy="206.2" r="30"/>
<path class="st3" d="M364.4,260.2h-28c-4.4,0-8-3.6-8-8s3.6-8,8-8h28c4.4,0,8,3.6,8,8S368.8,260.2,364.4,260.2z"/>
<path class="st5" d="M364.4,260.2h-28c-4.4,0-8-3.6-8-8s3.6-8,8-8h28c4.4,0,8,3.6,8,8S368.8,260.2,364.4,260.2z"/>
<path class="st3" d="M378.7,322.2h-318c-9.4,0-17,7.6-17,17v102c0,9.4,7.6,17,17,17h318c9.4,0,17-7.6,17-17v-102
	C395.7,329.9,388.1,322.3,378.7,322.2z M393.7,441.2c0,8.3-6.7,15-15,15h-318c-8.3,0-15-6.7-15-15v-102c0-8.3,6.7-15,15-15h318
	c8.3,0,15,6.7,15,15V441.2z"/>
<path class="st4" d="M261.4,384.8h-111c-4.4,0-8-3.6-8-8s3.6-8,8-8h111c4.4,0,8,3.6,8,8S265.8,384.8,261.4,384.8z"/>
<path class="st4" d="M364.4,411.8h-214c-4.4,0-8-3.6-8-8s3.6-8,8-8h214c4.4,0,8,3.6,8,8S368.8,411.8,364.4,411.8z"/>
<circle class="st4" cx="97" cy="390.2" r="30"/>
<path class="st5" d="M364.4,444.2h-28c-4.4,0-8-3.6-8-8s3.6-8,8-8h28c4.4,0,8,3.6,8,8S368.8,444.2,364.4,444.2z"/>
<path class="st6" d="M654.3,556.2h-140c-0.6,0-1-0.4-1-1s0.4-1,1-1h140c0.6,0,1,0.4,1,1S654.8,556.2,654.3,556.2z"/>
</svg>
