<svg id="SvgjsSvg1001" width="288" height="288" xmlns="http://www.w3.org/2000/svg" version="1.1" xmlns:xlink="http://www.w3.org/1999/xlink" xmlns:svgjs="http://svgjs.com/svgjs"><defs id="SvgjsDefs1002"></defs><g id="SvgjsG1008"><svg xmlns="http://www.w3.org/2000/svg" data-name="Layer 1" viewBox="0 0 101.5 122.88" width="288" height="288"><path d="M56.84,21.74a50.83,50.83,0,1,1-9.59-.24V13c0-.13,0-.26,0-.39h-9.5a2.83,2.83,0,0,1-2.83-2.83V2.83A2.84,2.84,0,0,1,37.76,0H66.33a2.84,2.84,0,0,1,2.83,2.83V9.77a2.83,2.83,0,0,1-2.83,2.83H56.82c0,.13,0,.26,0,.39v8.75ZM50.75,72.37,84.53,62.05a35.33,35.33,0,0,0-33.78-25V72.37Zm45.58-35.3c2-4.7,1.73-9.62-1.09-12.92-3.38-4-9.49-4.41-15.17-1.63A82.53,82.53,0,0,1,96.33,37.07Zm-91.16,0c-2-4.7-1.74-9.62,1.08-12.92,3.38-4,9.5-4.41,15.18-1.63A82,82,0,0,0,5.17,37.07ZM80.87,42A42.59,42.59,0,1,0,93.35,72.13,42.47,42.47,0,0,0,80.87,42Z" fill="#767fad" class="color000 svgShape"></path></svg></g></svg>