<svg id="Layer_1" data-name="Layer 1" xmlns="http://www.w3.org/2000/svg" viewBox="0 0 802.97 375.95"><defs><style>.cls-1{fill:#f38120;}</style></defs><path class="cls-1" d="M339.27,125h-20a52.54,52.54,0,0,0-52.53,52.53v20a52.54,52.54,0,0,0,52.53,52.53h20a52.54,52.54,0,0,0,52.53-52.53v-20A52.54,52.54,0,0,0,339.27,125Zm29.64,72.5a29.68,29.68,0,0,1-29.64,29.64h-20a29.67,29.67,0,0,1-29.64-29.64v-20a29.66,29.66,0,0,1,29.64-29.63h20a29.67,29.67,0,0,1,29.64,29.63Z"/><path class="cls-1" d="M197.52,125.9h-20A52.54,52.54,0,0,0,125,178.43v20a52.54,52.54,0,0,0,52.53,52.53h20a52.54,52.54,0,0,0,52.53-52.53v-20A52.54,52.54,0,0,0,197.52,125.9Zm29.64,72.5A29.68,29.68,0,0,1,197.52,228h-20a29.67,29.67,0,0,1-29.63-29.64v-20a29.66,29.66,0,0,1,29.63-29.63h20a29.67,29.67,0,0,1,29.64,29.63Z"/><path class="cls-1" d="M485.43,125.9h-20a52.23,52.23,0,0,0-29.64,9.18V96A10.57,10.57,0,0,0,425.26,85.4H423.5A10.58,10.58,0,0,0,412.93,96V198.4a52.54,52.54,0,0,0,52.53,52.53h20A52.54,52.54,0,0,0,538,198.4v-20A52.54,52.54,0,0,0,485.43,125.9Zm29.63,72.5A29.67,29.67,0,0,1,485.43,228h-20a29.68,29.68,0,0,1-29.64-29.64v-20a29.67,29.67,0,0,1,29.64-29.63h20a29.66,29.66,0,0,1,29.63,29.63Z"/><path class="cls-1" d="M667.38,198.1A10.56,10.56,0,0,0,678,187.54v-9.11a52.53,52.53,0,0,0-52.53-52.53h-20a52.53,52.53,0,0,0-52.53,52.53v20a52.6,52.6,0,0,0,52.53,52.53h61A11.45,11.45,0,0,0,678,239.48h0A11.45,11.45,0,0,0,666.5,228h-61a29.63,29.63,0,0,1-29.63-29.64v-.3Zm-61.93-49.3h20A29.67,29.67,0,0,1,655,177H575.85A29.68,29.68,0,0,1,605.45,148.8Z"/></svg>